# xmcd CD database file
#
# Track frame offsets:
#	150
#	20183
#	38871
#	60265
#	80929
#	98067
#	115859
#	138057
#	158212
#	181584
#	201157
#	226354
#	245574
#	264924
#	284602
#	318460
#
# Disc length: 4485 seconds
#
# Revision: 3
# Processed by: cddbd v1.5.1PL2 Copyright (c) Steve Scherf et al.
# Submitted via: CDex 1.51
#
DISCID=da118310
DTITLE=Various Artist - Merengue pa' lleva'
DYEAR=2006
DGENRE=Merengue
TTITLE0=No le cuentas
TTITLE1=Oley Oley
TTITLE2=Tamarindo Seco
TTITLE3=El papa de los merengueros
TTITLE4=Traigo el sabor
TTITLE5=Doce rosas
TTITLE6=Chanflin
TTITLE7=Las Casas de Carton
TTITLE8=Si algun dia la vez
TTITLE9=Que voy hacer amor
TTITLE10=El Perro ajeno
TTITLE11=Perdoname
TTITLE12=Lo quieras o no
TTITLE13=Yo no me muero por nadie
TTITLE14=Cana Brava
TTITLE15=El Tigueron
EXTD=YEAR: 2006
EXTT0=
EXTT1=
EXTT2=
EXTT3=
EXTT4=
EXTT5=
EXTT6=
EXTT7=
EXTT8=
EXTT9=
EXTT10=
EXTT11=
EXTT12=
EXTT13=
EXTT14=
EXTT15=
PLAYORDER=
